<mxfile host="app.diagrams.net" modified="2023-09-18T16:14:17.201Z" agent="Mozilla/5.0 (Windows NT 10.0; Win64; x64) AppleWebKit/537.36 (KHTML, like Gecko) Chrome/114.0.0.0 YaBrowser/23.7.5.734 Yowser/2.5 Safari/537.36" version="21.7.5" etag="jZTIRFHXZISIC1jJsK6n" type="github">
  <diagram name="Страница — 1" id="x0ysTReZ10sH6YqafbNy">
    <mxGraphModel>
      <root>
        <mxCell id="0" />
        <mxCell id="1" parent="0" />
      </root>
    </mxGraphModel>
  </diagram>
</mxfile>
